# xmcd
#
# Track frame offsets:
#	150
#	18557
#	33812
#	51000
#	66677
#	84019
#	100187
#	129942
#	150056
#	171291
#
# Disc length: 2511 seconds
#
# Revision: 2
# Processed by: cddbd v1.5.2PL0 Copyright (c) Steve Scherf et al.
# Submitted via: audiograbber 1.83.01
#
DISCID=6d09cd0a
DTITLE=Krissy Matthews - No Age Limit
DYEAR=1900
DGENRE=Blues
TTITLE0=expressing with feeling
TTITLE1=all they did was blues
TTITLE2=feeling for the blues
TTITLE3=no age limit
TTITLE4=why can't i have...
TTITLE5=think
TTITLE6=sometimes
TTITLE7=i have the blues
TTITLE8=young boy
TTITLE9=the soul will never die
EXTD=
EXTT0=
EXTT1=
EXTT2=
EXTT3=
EXTT4=
EXTT5=
EXTT6=
EXTT7=
EXTT8=
EXTT9=
PLAYORDER=
